<svg width="46" height="46" viewBox="0 0 46 46" fill="none" xmlns="http://www.w3.org/2000/svg">
<path d="M4.6001 4.23633C3.77167 4.23633 3.1001 4.9079 3.1001 5.73633C3.1001 6.56476 3.77167 7.23633 4.6001 7.23633V4.23633ZM8.99413 5.73633L10.442 5.34421C10.2649 4.69035 9.67154 4.23633 8.99413 4.23633V5.73633ZM16.1344 32.1005L14.6866 32.4926C14.882 33.2141 15.5788 33.6816 16.3205 33.5889L16.1344 32.1005ZM38.1046 29.3542L38.2906 30.8427C38.9277 30.763 39.4434 30.2868 39.5735 29.6582L38.1046 29.3542ZM41.4001 13.4259L42.869 13.7298C42.9604 13.288 42.8481 12.8286 42.5632 12.4787C42.2784 12.1289 41.8512 11.9259 41.4001 11.9259V13.4259ZM11.0767 13.4259L9.62887 13.818L11.0767 13.4259ZM4.6001 5.73633V7.23633H8.99413V5.73633V4.23633H4.6001V5.73633ZM16.1344 32.1005L16.3205 33.5889L38.2906 30.8427L38.1046 29.3542L37.9185 27.8658L15.9484 30.6121L16.1344 32.1005ZM38.1046 29.3542L39.5735 29.6582L42.869 13.7298L41.4001 13.4259L39.9312 13.122L36.6357 29.0503L38.1046 29.3542ZM8.99413 5.73633L7.54629 6.12845L9.62887 13.818L11.0767 13.4259L12.5246 13.0338L10.442 5.34421L8.99413 5.73633ZM11.0767 13.4259L9.62887 13.818L14.6866 32.4926L16.1344 32.1005L17.5823 31.7084L12.5246 13.0338L11.0767 13.4259ZM41.4001 13.4259V11.9259H11.0767V13.4259V14.9259H41.4001V13.4259ZM23.0001 39.2919H21.5001C21.5001 40.0513 20.8845 40.6669 20.1251 40.6669V42.1669V43.6669C22.5413 43.6669 24.5001 41.7082 24.5001 39.2919H23.0001ZM20.1251 42.1669V40.6669C19.3657 40.6669 18.7501 40.0513 18.7501 39.2919H17.2501H15.7501C15.7501 41.7082 17.7089 43.6669 20.1251 43.6669V42.1669ZM17.2501 39.2919H18.7501C18.7501 38.5325 19.3657 37.9169 20.1251 37.9169V36.4169V34.9169C17.7089 34.9169 15.7501 36.8757 15.7501 39.2919H17.2501ZM20.1251 36.4169V37.9169C20.8845 37.9169 21.5001 38.5325 21.5001 39.2919H23.0001H24.5001C24.5001 36.8757 22.5413 34.9169 20.1251 34.9169V36.4169ZM38.3334 39.2919H36.8334C36.8334 40.0513 36.2178 40.6669 35.4584 40.6669V42.1669V43.6669C37.8747 43.6669 39.8334 41.7082 39.8334 39.2919H38.3334ZM35.4584 42.1669V40.6669C34.699 40.6669 34.0834 40.0513 34.0834 39.2919H32.5834H31.0834C31.0834 41.7082 33.0422 43.6669 35.4584 43.6669V42.1669ZM32.5834 39.2919H34.0834C34.0834 38.5325 34.699 37.9169 35.4584 37.9169V36.4169V34.9169C33.0422 34.9169 31.0834 36.8757 31.0834 39.2919H32.5834ZM35.4584 36.4169V37.9169C36.2178 37.9169 36.8334 38.5325 36.8334 39.2919H38.3334H39.8334C39.8334 36.8757 37.8747 34.9169 35.4584 34.9169V36.4169Z" fill="white"/>
</svg>
