<svg width="19" height="18" viewBox="0 0 19 18" fill="none" xmlns="http://www.w3.org/2000/svg">
<path d="M12.2481 11.1618C12.5101 11.2492 12.7933 11.1076 12.8806 10.8456C12.9679 10.5836 12.8263 10.3005 12.5644 10.2132L12.2481 11.1618ZM9.875 9.84375H9.375C9.375 10.059 9.51272 10.25 9.71689 10.3181L9.875 9.84375ZM10.375 6.31565C10.375 6.03951 10.1511 5.81565 9.875 5.81565C9.59886 5.81565 9.375 6.03951 9.375 6.31565H10.375ZM12.4062 10.6875L12.5644 10.2132L10.0331 9.36941L9.875 9.84375L9.71689 10.3181L12.2481 11.1618L12.4062 10.6875ZM9.875 9.84375H10.375V6.31565H9.875H9.375V9.84375H9.875ZM16.625 9H16.125C16.125 12.4518 13.3268 15.25 9.875 15.25V15.75V16.25C13.8791 16.25 17.125 13.0041 17.125 9H16.625ZM9.875 15.75V15.25C6.42322 15.25 3.625 12.4518 3.625 9H3.125H2.625C2.625 13.0041 5.87094 16.25 9.875 16.25V15.75ZM3.125 9H3.625C3.625 5.54822 6.42322 2.75 9.875 2.75V2.25V1.75C5.87094 1.75 2.625 4.99594 2.625 9H3.125ZM9.875 2.25V2.75C13.3268 2.75 16.125 5.54822 16.125 9H16.625H17.125C17.125 4.99594 13.8791 1.75 9.875 1.75V2.25Z" fill="white"/>
</svg>
