<?xml version="1.0" standalone="no"?>
<!DOCTYPE svg PUBLIC "-//W3C//DTD SVG 20010904//EN"
 "http://www.w3.org/TR/2001/REC-SVG-20010904/DTD/svg10.dtd">
<svg version="1.0" xmlns="http://www.w3.org/2000/svg"
 width="300.000000pt" height="225.000000pt" viewBox="0 0 300.000000 225.000000"
 preserveAspectRatio="xMidYMid meet">
<metadata>
Created by potrace 1.10, written by Peter Selinger 2001-2011
</metadata>
<g transform="translate(0.000000,225.000000) scale(0.100000,-0.100000)"
fill="#000000" stroke="none">
<path d="M1620 2064 c0 -5 7 -18 15 -28 8 -11 15 -37 15 -57 0 -38 -12 -56
-128 -200 -87 -106 -120 -217 -92 -305 13 -40 70 -138 76 -131 3 2 -8 31 -23
63 -20 43 -27 75 -27 119 0 75 24 125 127 263 84 113 105 164 87 216 -10 32
-50 80 -50 60z"/>
<path d="M1691 1896 c-14 -57 -35 -90 -102 -162 -68 -73 -89 -120 -89 -196 0
-40 7 -78 19 -103 l19 -40 0 72 c1 85 21 137 79 204 79 92 109 168 94 239 l-7
35 -13 -49z"/>
<path d="M1418 1703 c-50 -53 -68 -93 -68 -153 0 -61 18 -101 73 -157 49 -51
68 -57 34 -10 -79 105 -83 215 -12 320 14 20 22 37 17 37 -4 0 -24 -17 -44
-37z"/>
<path d="M1093 1392 c-45 -15 -94 -39 -109 -52 -25 -24 -26 -29 -20 -90 3 -36
9 -81 12 -100 l6 -35 -42 -2 c-144 -5 -86 -176 87 -258 69 -33 89 -31 32 3
-90 53 -149 117 -149 161 0 34 17 51 51 51 25 0 33 -9 68 -77 72 -137 166
-224 299 -273 68 -26 182 -40 242 -31 42 7 40 7 -35 13 -205 14 -389 139 -483
327 -34 67 -71 205 -60 217 2 2 31 -8 65 -21 106 -43 241 -58 467 -52 157 4
219 10 284 26 141 35 197 75 172 122 -14 25 -120 76 -175 83 -36 5 -34 4 15
-12 104 -35 129 -65 89 -108 -96 -103 -685 -114 -853 -16 -39 22 -46 60 -16
87 21 19 21 19 15 -7 -8 -32 13 -48 100 -75 87 -26 383 -26 470 0 75 23 105
42 105 66 0 23 -54 59 -101 66 -31 5 -31 4 11 -13 98 -42 45 -90 -125 -113
-150 -20 -343 1 -409 45 -38 24 -20 51 49 71 30 9 55 18 55 21 0 9 -40 1 -117
-24z"/>
<path d="M1287 1402 c-20 -22 -22 -63 -5 -80 17 -17 55 -15 62 4 9 24 7 29 -6
16 -22 -22 -40 -14 -36 16 6 52 90 32 128 -31 18 -29 20 -30 20 -9 0 12 -17
39 -40 62 -45 45 -94 54 -123 22z"/>
<path d="M1941 925 c-179 -182 -432 -224 -653 -110 -38 19 -68 32 -68 30 0
-12 125 -85 170 -100 78 -26 163 -34 237 -24 120 17 257 100 343 209 43 54 26
51 -29 -5z"/>
<path d="M1950 837 c3 -2 43 -12 90 -21 98 -20 184 -56 199 -84 32 -60 -104
-119 -359 -158 -145 -21 -526 -30 -676 -15 -204 21 -345 59 -383 105 -36 43
14 85 149 126 48 15 54 19 25 15 -91 -13 -225 -66 -259 -104 -69 -77 113 -151
448 -182 145 -13 561 -7 691 11 335 46 508 125 440 200 -21 23 -120 65 -200
84 -67 16 -173 31 -165 23z"/>
<path d="M1820 744 c-33 -39 -141 -77 -255 -89 -113 -13 -306 33 -346 81 -6 8
-16 14 -22 14 -24 0 39 -50 93 -74 126 -57 324 -56 452 1 54 24 107 67 96 78
-3 3 -11 -2 -18 -11z"/>
</g>
</svg>
