<svg width="24" height="24" viewBox="0 0 24 24" fill="none" xmlns="http://www.w3.org/2000/svg">
<path d="M12.0005 17.3003C13.0496 17.3005 13.8998 18.1506 13.8999 19.1997C13.8999 20.2489 13.0497 21.0999 12.0005 21.1001C10.9511 21.1001 10.1001 20.249 10.1001 19.1997C10.1002 18.1505 10.9512 17.3003 12.0005 17.3003ZM12.0005 10.1001C13.0495 10.1003 13.8997 10.9505 13.8999 11.9995C13.8999 13.0487 13.0496 13.8997 12.0005 13.8999C10.9511 13.8999 10.1001 13.0489 10.1001 11.9995C10.1003 10.9504 10.9513 10.1001 12.0005 10.1001ZM12.0005 2.8999C13.0496 2.90011 13.8999 3.75108 13.8999 4.80029C13.8997 5.84932 13.0495 6.6995 12.0005 6.69971C10.9513 6.69971 10.1003 5.84945 10.1001 4.80029C10.1001 3.75095 10.9511 2.8999 12.0005 2.8999Z" fill="white" stroke="white"/>
</svg>
