<svg width="32" height="32" viewBox="0 0 32 32" fill="none" xmlns="http://www.w3.org/2000/svg">
<g filter="url(#filter0_i_3415_42)">
<path d="M23.0081 8.66669H23.0212M9.26039 2.66669H22.3534C25.969 2.66669 28.9 5.65146 28.9 9.33335V22.6667C28.9 26.3486 25.969 29.3334 22.3534 29.3334H9.26039C5.64484 29.3334 2.71387 26.3486 2.71387 22.6667V9.33335C2.71387 5.65146 5.64484 2.66669 9.26039 2.66669ZM21.0441 15.16C21.2057 16.2697 21.0196 17.403 20.5122 18.3987C20.0049 19.3944 19.2021 20.2019 18.2182 20.7063C17.2342 21.2106 16.1191 21.3861 15.0315 21.2079C13.9439 21.0297 12.9392 20.5068 12.1603 19.7136C11.3814 18.9203 10.8679 17.8972 10.6929 16.7896C10.5178 15.6821 10.6902 14.5465 11.1855 13.5445C11.6808 12.5425 12.4737 11.725 13.4515 11.2083C14.4292 10.6917 15.5421 10.5021 16.6318 10.6667C17.7433 10.8345 18.7723 11.362 19.5668 12.1711C20.3614 12.9802 20.8793 14.0281 21.0441 15.16Z" stroke="url(#paint0_linear_3415_42)" stroke-width="3" stroke-linecap="round" stroke-linejoin="round"/>
</g>
<defs>
<filter id="filter0_i_3415_42" x="0.0952148" y="0" width="31.4233" height="36" filterUnits="userSpaceOnUse" color-interpolation-filters="sRGB">
<feFlood flood-opacity="0" result="BackgroundImageFix"/>
<feBlend mode="normal" in="SourceGraphic" in2="BackgroundImageFix" result="shape"/>
<feColorMatrix in="SourceAlpha" type="matrix" values="0 0 0 0 0 0 0 0 0 0 0 0 0 0 0 0 0 0 127 0" result="hardAlpha"/>
<feOffset dy="4"/>
<feGaussianBlur stdDeviation="2"/>
<feComposite in2="hardAlpha" operator="arithmetic" k2="-1" k3="1"/>
<feColorMatrix type="matrix" values="0 0 0 0 0 0 0 0 0 0 0 0 0 0 0 0 0 0 0.25 0"/>
<feBlend mode="normal" in2="shape" result="effect1_innerShadow_3415_42"/>
</filter>
<linearGradient id="paint0_linear_3415_42" x1="2.71387" y1="16" x2="28.9" y2="16" gradientUnits="userSpaceOnUse">
<stop stop-color="#AFABE6"/>
<stop offset="1" stop-color="#ACE2E9"/>
</linearGradient>
</defs>
</svg>
